<svg width="24" height="24" viewBox="0 0 24 24" fill="none" xmlns="http://www.w3.org/2000/svg">
<g id="noto:alarm-clock">
<path id="Vector" d="M6.00752 23.1881C5.88111 23.1246 5.78201 23.0174 5.72857 22.8864C5.67513 22.7554 5.67099 22.6094 5.71689 22.4756L6.47064 20.2687L7.94627 21.2644L6.75377 22.9969C6.67337 23.1134 6.55355 23.1969 6.41641 23.2321C6.27928 23.2672 6.13405 23.2516 6.00752 23.1881ZM17.88 23.1881C18.1406 23.0569 18.2663 22.7531 18.1706 22.4756L17.4075 20.2425L15.8531 21.1369L17.1338 22.9969C17.2142 23.1134 17.334 23.1969 17.4711 23.2321C17.6083 23.2672 17.7535 23.2516 17.88 23.1881Z" fill="#82AEC0"/>
<path id="Vector_2" d="M6.47062 20.2688L6.08624 21.3938C6.32437 21.2569 6.63562 21.27 6.88312 21.3919C7.13062 21.5138 7.31999 21.7275 7.46437 21.9638L7.90124 21.33C7.90124 21.3038 6.47062 20.2688 6.47062 20.2688ZM17.4131 20.2406L17.8294 21.4781C17.5912 21.3413 17.3062 21.345 17.0569 21.4669C16.8094 21.5888 16.62 21.8025 16.4756 22.0388L15.9037 21.2081L17.4131 20.2406Z" fill="#2F7889"/>
<path id="Vector_3" d="M11.9438 21.7387C16.294 21.7387 19.8206 18.2121 19.8206 13.8619C19.8206 9.51158 16.294 5.98499 11.9438 5.98499C7.59349 5.98499 4.06689 9.51158 4.06689 13.8619C4.06689 18.2121 7.59349 21.7387 11.9438 21.7387Z" fill="#FFEFA1"/>
<path id="Vector_4" d="M11.9437 22.4213C17.0551 22.4213 21.1987 18.2776 21.1987 13.1663C21.1987 8.05486 17.0551 3.91125 11.9437 3.91125C6.83233 3.91125 2.68872 8.05486 2.68872 13.1663C2.68872 18.2776 6.83233 22.4213 11.9437 22.4213Z" fill="#CC2929"/>
<path id="Vector_5" d="M11.9438 22.3312C16.7487 22.3312 20.6438 18.4361 20.6438 13.6312C20.6438 8.82637 16.7487 4.93124 11.9438 4.93124C7.1389 4.93124 3.24377 8.82637 3.24377 13.6312C3.24377 18.4361 7.1389 22.3312 11.9438 22.3312Z" fill="#FF4638"/>
<path id="Vector_6" d="M11.9437 21.1369C16.089 21.1369 19.4494 17.7765 19.4494 13.6312C19.4494 9.48599 16.089 6.12561 11.9437 6.12561C7.79849 6.12561 4.43811 9.48599 4.43811 13.6312C4.43811 17.7765 7.79849 21.1369 11.9437 21.1369Z" fill="#FAFAFA"/>
<path id="Vector_7" d="M12 14.4656C12.4608 14.4656 12.8344 14.0921 12.8344 13.6312C12.8344 13.1704 12.4608 12.7969 12 12.7969C11.5392 12.7969 11.1656 13.1704 11.1656 13.6312C11.1656 14.0921 11.5392 14.4656 12 14.4656Z" fill="#563428"/>
<path id="Vector_8" d="M11.9437 7.98187C11.7919 7.98187 11.6681 7.85812 11.6681 7.70625V6.88125C11.6681 6.72937 11.7919 6.60562 11.9437 6.60562C12.0956 6.60562 12.2194 6.72937 12.2194 6.88125V7.70625C12.2194 7.85812 12.0956 7.98187 11.9437 7.98187ZM11.9437 20.655C11.7919 20.655 11.6681 20.5312 11.6681 20.3794V19.5544C11.6681 19.4025 11.7919 19.2787 11.9437 19.2787C12.0956 19.2787 12.2194 19.4025 12.2194 19.5544V20.3794C12.2194 20.5312 12.0956 20.655 11.9437 20.655ZM18.6919 13.905H17.8669C17.715 13.905 17.5912 13.7812 17.5912 13.6294C17.5912 13.4775 17.715 13.3537 17.8669 13.3537H18.6919C18.8437 13.3537 18.9675 13.4775 18.9675 13.6294C18.9675 13.7831 18.8437 13.905 18.6919 13.905ZM6.02061 13.905H5.19561C5.04373 13.905 4.91998 13.7812 4.91998 13.6294C4.91998 13.4775 5.04373 13.3537 5.19561 13.3537H6.02061C6.17248 13.3537 6.29623 13.4775 6.29623 13.6294C6.29623 13.7831 6.17248 13.905 6.02061 13.905Z" fill="#B2947C"/>
<path id="Vector_9" d="M11.9438 7.98187C11.7919 7.98187 11.6682 7.85812 11.6682 7.70625V6.88125C11.6682 6.72937 11.7919 6.60562 11.9438 6.60562C12.0957 6.60562 12.2194 6.72937 12.2194 6.88125V7.70625C12.2194 7.85812 12.0957 7.98187 11.9438 7.98187ZM11.9438 20.655C11.7919 20.655 11.6682 20.5312 11.6682 20.3794V19.5544C11.6682 19.4025 11.7919 19.2787 11.9438 19.2787C12.0957 19.2787 12.2194 19.4025 12.2194 19.5544V20.3794C12.2194 20.5312 12.0957 20.655 11.9438 20.655ZM8.74315 8.63812L8.33065 7.92375C8.25378 7.7925 8.29878 7.62375 8.4319 7.54687C8.56315 7.47 8.7319 7.515 8.80878 7.64812L9.22128 8.3625C9.29815 8.49375 9.25315 8.6625 9.12003 8.73937C8.98878 8.81437 8.82003 8.76937 8.74315 8.63812ZM15.0807 19.6125L14.6682 18.8981C14.5913 18.7669 14.6382 18.5981 14.7694 18.5212C14.9007 18.4444 15.0694 18.4912 15.1463 18.6225L15.5588 19.3369C15.6357 19.4681 15.5888 19.6369 15.4575 19.7137C15.3244 19.7887 15.1557 19.7437 15.0807 19.6125Z" fill="#B2947C"/>
<path id="Vector_10" d="M8.74313 8.63812L8.33063 7.92375C8.25375 7.7925 8.29875 7.62375 8.43188 7.54687C8.56313 7.47 8.73188 7.515 8.80875 7.64812L9.22125 8.3625C9.29813 8.49375 9.25313 8.6625 9.12 8.73937C8.98875 8.81437 8.82 8.76937 8.74313 8.63812ZM15.0806 19.6125L14.6681 18.8981C14.5913 18.7669 14.6381 18.5981 14.7694 18.5212C14.9006 18.4444 15.0694 18.4912 15.1463 18.6225L15.5588 19.3369C15.6356 19.4681 15.5888 19.6369 15.4575 19.7137C15.3244 19.7887 15.1556 19.7437 15.0806 19.6125ZM6.67688 10.9069L5.9625 10.4944C5.83125 10.4175 5.78625 10.2506 5.86125 10.1175C5.93813 9.98625 6.105 9.94125 6.23813 10.0162L6.9525 10.4287C7.08375 10.5056 7.12875 10.6725 7.05375 10.8056C6.97688 10.9387 6.80813 10.9837 6.67688 10.9069ZM17.6513 17.2425L16.9369 16.83C16.8056 16.7531 16.7606 16.5862 16.8356 16.4531C16.9125 16.3219 17.0794 16.2769 17.2125 16.3519L17.9269 16.7644C18.0581 16.8412 18.1031 17.0081 18.0281 17.1412C17.9513 17.2744 17.7825 17.3194 17.6513 17.2425ZM14.7675 8.73937C14.6363 8.6625 14.5913 8.49562 14.6663 8.3625L15.0788 7.64812C15.1556 7.51687 15.3225 7.47187 15.4556 7.54687C15.5869 7.62375 15.6319 7.79062 15.5569 7.92375L15.1444 8.63812C15.0675 8.76937 14.9006 8.81437 14.7675 8.73937ZM8.43188 19.7137C8.30063 19.6369 8.25563 19.47 8.33063 19.3369L8.74313 18.6225C8.82 18.4912 8.98688 18.4462 9.12 18.5212C9.25125 18.5981 9.29625 18.765 9.22125 18.8981L8.80875 19.6125C8.73188 19.7437 8.56313 19.7887 8.43188 19.7137ZM16.8356 10.8056C16.7588 10.6744 16.8038 10.5056 16.9369 10.4287L17.6513 10.0162C17.7825 9.93937 17.9513 9.98625 18.0281 10.1175C18.105 10.2487 18.0581 10.4175 17.9269 10.4944L17.2125 10.9069C17.0794 10.9837 16.9106 10.9387 16.8356 10.8056ZM5.86125 17.1431C5.78438 17.0119 5.83125 16.8431 5.9625 16.7662L6.67688 16.3537C6.80813 16.2769 6.97688 16.3237 7.05375 16.455C7.13063 16.5862 7.08375 16.755 6.9525 16.8319L6.23813 17.2444C6.105 17.3194 5.93625 17.2744 5.86125 17.1431Z" fill="#B2947C"/>
<path id="Vector_11" d="M8.90436 11.9044L11.9437 13.6313" stroke="#563428" stroke-width="0.9375" stroke-miterlimit="10" stroke-linecap="round"/>
<path id="Vector_12" d="M16.2881 11.1394L12.0825 13.6312" stroke="#563428" stroke-width="0.65625" stroke-miterlimit="10" stroke-linecap="round"/>
<path id="Vector_13" d="M17.2481 6.09187L16.4719 5.58375L19.1137 0.903748L19.92 1.35937L17.2481 6.09187Z" fill="#82AEC0"/>
<path id="Vector_14" d="M20.8444 6.60187C21.075 6.66937 21.3225 6.54187 21.3938 6.31312C22.0013 4.37249 21.2138 2.26124 19.3088 1.28062C17.3907 0.292493 15.3075 0.941243 14.0944 2.59687C13.9575 2.78249 13.9894 3.04312 14.1619 3.19499C14.5538 3.54187 15.4238 4.19437 17.1581 5.07187C18.99 5.99812 20.2463 6.42562 20.8444 6.60187Z" fill="#CC2929"/>
<path id="Vector_15" d="M19.8469 1.93126C19.8469 1.93126 20.3363 1.30689 19.6256 0.91126C19.0725 0.60376 18.7219 1.27689 18.7219 1.27689C18.6 1.50001 19.7625 2.08501 19.8469 1.93126ZM6.68063 6.09751L4.005 1.35939L4.81313 0.90376L7.41188 5.50876L6.68063 6.09751Z" fill="#82AEC0"/>
<path id="Vector_16" d="M3.1556 6.60187C2.92498 6.66937 2.67748 6.54187 2.60623 6.31312C1.99873 4.37249 2.78623 2.26124 4.69123 1.28062C6.60935 0.292493 8.69248 0.941243 9.9056 2.59687C10.0425 2.78249 10.0106 3.04312 9.8381 3.19499C9.44623 3.54187 8.57623 4.19437 6.84185 5.07187C5.00998 5.99812 3.75373 6.42562 3.1556 6.60187Z" fill="#CC2929"/>
<path id="Vector_17" d="M4.15315 1.93126C4.15315 1.93126 3.66378 1.30689 4.3744 0.91126C4.92753 0.60376 5.27815 1.27689 5.27815 1.27689C5.40003 1.50001 4.23753 2.08501 4.15315 1.93126Z" fill="#82AEC0"/>
<path id="Vector_18" d="M11.9437 4.35375V1.78125" stroke="#82AEC0" stroke-width="0.694875" stroke-miterlimit="10"/>
<path id="Vector_19" d="M11.955 2.69624C11.22 2.69624 10.4832 2.41499 10.4832 2.41499V1.85812C10.4832 1.85812 11.1675 1.55249 11.9907 1.55249C12.8138 1.55249 13.425 1.85812 13.425 1.85812V2.41499C13.4269 2.41687 12.6919 2.69624 11.955 2.69624Z" fill="#82AEC0"/>
<path id="Vector_20" d="M10.6688 1.83563C10.5881 1.86563 10.5806 1.97625 10.6556 2.01938C10.7644 2.08125 10.8938 2.145 10.9388 2.1375C11.5575 2.04188 12.4556 2.08875 13.0763 2.1825C13.1194 2.19 13.2431 2.085 13.3313 2.00625C13.38 1.96125 13.3688 1.88438 13.3088 1.85625C13.1138 1.76813 12.6731 1.61063 11.9906 1.61063C11.3606 1.61063 10.905 1.74375 10.6688 1.83563Z" fill="#94D1E0"/>
<path id="Vector_21" d="M17.8237 1.48126C17.8819 1.68001 17.6681 1.84313 17.4956 1.95751C17.0607 2.24963 16.7113 2.65212 16.4831 3.12376C16.3744 3.34876 16.2525 3.62438 16.0031 3.66001C15.9037 3.67313 15.8062 3.64313 15.7125 3.60938C15.5681 3.55688 15.4275 3.49688 15.2906 3.42751C15.1275 3.34501 14.9606 3.24001 14.8856 3.07313C14.7881 2.85376 14.88 2.59501 15.0112 2.39251C15.3244 1.91438 15.8344 1.61813 16.3594 1.42313C16.6762 1.30501 17.6662 0.943133 17.8237 1.48126ZM4.89936 3.06188C5.02124 3.31501 5.15811 3.56063 5.30999 3.79688C5.49561 4.08563 5.71124 4.40813 5.63249 4.74188C5.54062 5.12438 5.11686 5.30813 4.74374 5.43563C4.55249 5.50126 4.36311 5.56688 4.17186 5.63251C4.07061 5.66813 3.96374 5.70376 3.85686 5.69813C3.68811 5.69063 3.53624 5.58376 3.44061 5.44688C3.34311 5.31001 3.29437 5.14501 3.25687 4.98188C3.11624 4.35376 3.14436 3.68813 3.33749 3.07313C3.44999 2.72063 3.62624 2.34938 4.02561 2.32126C4.51124 2.28751 4.71749 2.68313 4.89936 3.06188Z" fill="#FF4638"/>
</g>
</svg>
