<svg width="24" height="24" viewBox="0 0 24 24" fill="none" xmlns="http://www.w3.org/2000/svg">
<g id="noto:cooked-rice" clip-path="url(#clip0_174_1755)">
<path id="Vector" d="M15.6544 18.57C15.3131 18.6375 7.21874 19.6631 7.21874 19.6631C7.21874 19.6631 7.04811 21.0975 7.28624 21.5756C7.52436 22.0537 9.06186 23.1469 11.9644 23.1469C14.8669 23.1469 16.4719 22.2244 16.7119 21.6788C16.9519 21.1331 16.6087 18.81 16.6087 18.81L15.6544 18.57Z" fill="#77A3AB"/>
<path id="Vector_2" d="M6.38813 8.0325L0.877502 10.5844C0.877502 10.5844 1.31813 15.7763 4.76438 18.6188C9.72375 22.7081 17.1488 21.4894 20.5706 17.4881C23.6944 13.8356 23.1225 8.99063 23.1225 8.99063L6.38813 8.0325Z" fill="#A7D0D6"/>
<path id="Vector_3" d="M0.740609 9.46875C0.586859 11.6944 2.80311 14.415 11.94 14.5181C21.4687 14.625 24.8456 9.93188 22.7119 7.47938C20.5781 5.02688 15.3881 4.74188 11.7975 4.7775C8.20686 4.81313 0.989984 5.85562 0.740609 9.46875Z" fill="#77A3AC"/>
<path id="Vector_4" d="M1.94252 10.3762C1.94252 10.3762 1.84315 9.91313 2.0044 9.42937C2.16565 8.94562 2.4544 8.805 2.49565 8.64937C2.5369 8.49375 2.14127 7.67062 2.80877 6.58875C3.47627 5.50687 3.9094 5.73562 4.09315 5.50687C4.2769 5.27812 4.26752 4.50562 5.09627 3.76875C5.92502 3.03187 6.6844 3.10125 6.6844 3.10125C6.6844 3.10125 7.05377 2.13375 7.95002 1.76625C8.84627 1.39875 9.75002 1.62562 9.75002 1.62562C9.75002 1.62562 10.5563 0.88875 11.685 0.86625C12.8138 0.84375 13.1363 1.16625 13.3894 1.18875C13.6425 1.21125 14.2406 0.913125 15.3 1.30312C16.3594 1.695 16.3744 2.28937 16.6125 2.385C16.8506 2.48062 17.4881 2.29312 18.4556 3.075C19.4231 3.85687 19.2638 4.21687 19.4006 4.365C19.5356 4.51312 20.445 4.51875 20.9438 5.79187C21.3113 6.72937 21.1144 7.4175 21.1519 7.51875C21.1894 7.62 21.7106 8.16187 21.9356 8.71688C22.1438 9.23438 22.2356 9.96 22.2356 9.96C22.2356 9.96 21.7519 10.8075 20.58 11.5781C19.3406 12.3937 5.42252 12.4294 4.50002 12.135C2.90627 11.6306 1.94252 10.3762 1.94252 10.3762Z" fill="#CDCBC0"/>
<path id="Vector_5" d="M3.46311 8.97187C3.46311 8.97187 3.35999 7.81312 3.67124 7.17562C4.10812 6.2775 4.96124 6.18562 4.96124 6.18562C4.96124 6.18562 5.05686 5.16187 5.78999 4.5975C6.68812 3.9075 7.03312 4.09125 7.33312 3.81375C7.63312 3.53812 7.81686 3.05437 8.55374 2.73187C9.29062 2.40937 9.88874 2.6175 10.1419 2.50125C10.395 2.385 10.8 1.9125 11.6062 1.85812C12.6431 1.78875 12.7106 2.19 13.305 2.25375C13.7269 2.29875 14.0419 2.04937 14.94 2.325C15.8381 2.60062 15.8681 3.14437 16.1531 3.33C16.4381 3.51562 17.1412 3.345 17.9025 3.92812C18.5925 4.45687 18.585 4.94625 18.7781 5.14875C18.9694 5.35125 19.5375 5.42437 19.9519 6.50812C20.2969 7.41 20.0419 7.67625 20.1356 7.95937C20.2294 8.2425 20.7431 8.53875 21.0562 9.38625C21.4481 10.4456 21.3319 10.9987 21.3319 10.9987C21.3319 10.9987 19.4437 13.5131 11.0625 13.4156C5.02874 13.3462 2.86499 11.2519 2.86499 11.2519C2.86499 11.2519 2.77312 10.1231 3.00374 9.68625C3.23437 9.24937 3.46311 8.97187 3.46311 8.97187Z" fill="white"/>
<path id="Vector_6" d="M11.4694 12.7969C11.655 13.215 12.3863 13.2844 13.0013 12.5962C13.5525 11.9775 13.23 11.025 12.6394 11.1056C12.1013 11.1787 12.2775 11.7375 12.0206 11.9513C11.7638 12.165 11.3081 12.4331 11.4694 12.7969ZM14.3438 10.245C14.5031 10.5862 15.4594 10.5131 15.8213 9.88312C16.1831 9.25125 16.1306 8.32875 15.6056 8.33812C14.9213 8.35125 15.1763 9.05062 14.9344 9.26437C14.6925 9.47812 14.0756 9.6675 14.3438 10.245ZM18.0375 6.765C17.6438 6.8925 17.85 7.41 17.6888 7.75875C17.5275 8.1075 17.0981 8.4975 17.4338 8.79375C17.7694 9.09 18.5344 8.60625 18.6431 7.8675C18.7481 7.12875 18.4538 6.63188 18.0375 6.765ZM16.3763 11.4375C16.125 11.8406 15.6506 11.6381 15.5569 12.0563C15.4631 12.4725 16.4306 12.6206 16.9669 12.1238C17.505 11.6269 17.3569 10.7812 17.0213 10.7137C16.6856 10.6444 16.5769 11.115 16.3763 11.4375ZM14.8613 6.83625C15.0825 7.08375 15.9694 6.82125 16.2638 5.93812C16.5581 5.055 15.9769 4.485 15.585 4.68562C15.1931 4.88625 15.4725 5.31187 15.3788 5.5875C15.285 5.86312 14.4281 6.3525 14.8613 6.83625Z" fill="#D4D4D4"/>
</g>
<defs>
<clipPath id="clip0_174_1755">
<rect width="24" height="24" fill="white"/>
</clipPath>
</defs>
</svg>
