<svg width="38" height="38" viewBox="0 0 38 38" fill="none" xmlns="http://www.w3.org/2000/svg">
<g id="g-root-dumb_4g2k7lp0paf5-stroke">
<g id="dumb_4g2k7lp0paf5-stroke">
<g id="Group">
<path id="Vector" d="M21.7902 12.8281L12.8614 21.7714M25.1394 16.1809L16.2095 25.1242M16.2085 31.833C16.8348 32.4253 17.0895 33.3128 16.8748 34.1486C16.66 34.9834 16.0085 35.6369 15.1738 35.8519C14.3392 36.068 13.454 35.8129 12.8614 35.1868L2.81158 25.1242C1.9148 24.1946 1.92743 22.7147 2.84105 21.7998C3.75467 20.886 5.2314 20.8723 6.16081 21.7714M10.6321 32.9502C11.5573 33.8778 11.5562 35.3787 10.6321 36.3051C9.70686 37.2316 8.20697 37.2316 7.28178 36.3051L1.69587 30.7147C0.769624 29.7892 0.767518 28.2862 1.69271 27.3587C2.61791 26.4312 4.1178 26.4291 5.0451 27.3555M21.7923 6.11931C20.8682 5.19283 20.8682 3.69087 21.7933 2.76439C22.7185 1.83897 24.2184 1.83897 25.1426 2.76544L35.1882 12.8281C36.1134 13.7535 36.1134 15.2555 35.1892 16.182C34.264 17.1084 32.7641 17.1084 31.8389 16.182M27.3761 5.001C26.4941 4.06926 26.5141 2.60313 27.4203 1.69457C28.3276 0.787064 29.7907 0.765984 30.7232 1.64819L36.306 7.23867C37.2312 8.16514 37.2312 9.66711 36.307 10.5946C35.3818 11.5222 33.8809 11.5232 32.9546 10.5967M3.92834 19.5358C3.00314 18.6093 3.0042 17.1074 3.92834 16.1809C4.85353 15.2555 6.35343 15.2544 7.27862 16.1809L21.7912 30.7147C22.7164 31.6411 22.7164 33.1442 21.7912 34.0706C20.866 34.9971 19.3662 34.9971 18.441 34.0696L3.92834 19.5358ZM16.2085 7.23867C15.2833 6.31219 15.2843 4.81023 16.2085 3.88375C17.1337 2.95833 18.6336 2.95727 19.5588 3.88375L34.0714 18.4186C34.6871 19.013 34.9334 19.8952 34.7177 20.7247C34.5008 21.5532 33.8535 22.2014 33.0262 22.4185C32.1978 22.6346 31.3169 22.388 30.7232 21.7714L16.2085 7.23867Z" stroke="#E3CD09" stroke-width="2" stroke-linecap="round" stroke-linejoin="round"/>
</g>
</g>
</g>
</svg>
