<svg width="39" height="38" viewBox="0 0 39 38" fill="none" xmlns="http://www.w3.org/2000/svg">
<g id="g-root-meda_v7cwk1p0p9tu-stroke">
<g id="meda_v7cwk1p0p9tu-stroke">
<g id="Group">
<path id="Vector" d="M7.77823 1H31.2221M7.77823 1L17.2101 19.2494M7.77823 1L1.98296 7.10435C1.37478 7.74504 1.33741 8.69043 1.89123 9.37078L12.1952 22.025M31.2221 1L21.7902 19.2494M31.2221 1L37.0162 7.10435C37.6255 7.74504 37.6629 8.69043 37.1079 9.37078L26.8051 22.025M27.4994 8.2H11.5009M20.4764 31.6V25.2995C20.4764 24.9593 20.268 24.6473 19.9373 24.495C19.6066 24.3426 19.2102 24.375 18.9146 24.5795L16.5691 26.2M18.5239 31.6H22.4312M9.73188 28C9.73188 32.9701 14.1058 37 19.5001 37C24.8945 37 29.2684 32.9701 29.2684 28C29.2684 23.0299 24.8945 19 19.5001 19C14.1058 19 9.73188 23.0299 9.73188 28Z" stroke="#DD8433" stroke-width="2" stroke-linecap="round" stroke-linejoin="round"/>
</g>
</g>
</g>
</svg>
