<svg width="24" height="24" viewBox="0 0 24 24" fill="none" xmlns="http://www.w3.org/2000/svg">
<g id="noto:peanuts">
<path id="Vector" d="M13.3838 2.77687C10.245 4.88249 9.02439 9.03937 8.28939 9.60187C6.56064 10.9219 3.41439 11.0794 1.46439 14.5069C-0.273739 17.5631 1.05564 20.2312 2.40751 21.4575C3.75939 22.6837 6.46501 21.7406 6.46501 21.7406C6.46501 21.7406 10.8994 19.1625 10.8994 18.9112C10.8994 18.66 13.95 14.16 15.3656 12.7144C16.7813 11.2687 22.3163 8.56312 22.3163 8.56312C22.3163 8.56312 23.31 4.28812 23.0719 3.62624C22.7869 2.83874 18.4463 -0.620631 13.3838 2.77687Z" fill="#F3AE38"/>
<path id="Vector_2" d="M13.3612 12.75C11.2144 15.5925 11.0512 17.9475 8.41874 19.7963C5.78624 21.645 2.40936 21.4556 2.40936 21.4556C2.40936 21.4556 4.22624 23.4206 7.67999 22.6144C11.5387 21.7125 12.7106 19.1719 14.0325 16.6313C14.61 15.5231 14.7262 15.0375 15.0019 14.76C15.2794 14.4825 18.6281 13.1438 20.0606 12.1725C21.4931 11.2013 22.8637 9.39189 23.1787 7.34439C23.5481 4.94251 23.0681 3.62439 23.0681 3.62439C23.0681 3.62439 22.9312 6.77064 20.985 8.61376C18.7912 10.695 14.6925 10.9913 13.3612 12.75Z" fill="#D97A08"/>
<path id="Vector_3" d="M2.60061 14.5125C2.23498 15.0994 2.19748 15.5569 2.51811 15.7462C2.87998 15.9619 3.33748 15.5325 3.56248 15.1406C3.78748 14.7487 3.94123 14.2031 3.64498 14.0137C3.31311 13.8 2.93436 13.9781 2.60061 14.5125ZM4.74936 13.0406C5.02498 13.5037 5.60436 13.2787 6.11436 12.9337C6.62436 12.5887 6.94498 12.1631 6.74248 11.8294C6.53998 11.4975 5.90061 11.6981 5.48436 11.9831C5.06998 12.27 4.48873 12.6019 4.74936 13.0406ZM9.99373 9.61124C10.3912 9.86249 10.7906 9.43311 11.1225 8.87436C11.4544 8.31749 11.6644 7.70999 11.2744 7.48686C10.9087 7.27686 10.5262 7.54874 10.1306 8.27811C9.68061 9.10874 9.67498 9.40874 9.99373 9.61124Z" fill="#F7C875"/>
<path id="Vector_4" d="M2.94378 19.9012C3.06753 20.28 3.5569 20.2256 3.88878 20.1225C4.43253 19.9537 4.64065 19.62 4.57128 19.3406C4.5019 19.0612 4.03315 18.9619 3.57378 19.1569C3.2794 19.2825 2.8219 19.5262 2.94378 19.9012ZM5.47128 19.08C5.72065 19.4081 6.14815 19.3387 6.80253 18.8362C7.31065 18.4462 7.51128 17.9194 7.28628 17.6475C7.06128 17.3756 6.81003 17.5931 6.26253 18C5.7544 18.3769 5.26503 18.81 5.47128 19.08ZM5.99253 16.8244C6.20628 17.1562 6.70878 17.0269 7.22253 16.6144C7.70065 16.23 7.8919 15.8381 7.5994 15.5231C7.32003 15.2212 6.83628 15.6525 6.5794 15.855C6.26628 16.1025 5.73753 16.4288 5.99253 16.8244ZM8.4394 16.3406C7.9819 16.7737 7.69315 17.1694 8.04753 17.4731C8.4019 17.7769 8.92878 17.2725 9.14628 17.0662C9.36378 16.8581 9.84003 16.3481 9.52315 15.9994C9.20815 15.6525 8.6569 16.1344 8.4394 16.3406ZM9.8269 12.9169C9.52503 13.2881 9.0769 13.7475 9.29065 14.0437C9.51378 14.3512 10.065 14.2425 10.545 13.6275C10.8469 13.2394 10.9519 12.6937 10.6913 12.4688C10.4325 12.2437 10.0932 12.5906 9.8269 12.9169ZM13.0688 10.5487C13.2544 10.9762 13.9144 10.755 14.4019 10.47C14.8894 10.1831 15.285 9.80625 15.1144 9.4725C14.9588 9.16687 14.4132 9.18562 13.8413 9.52687C13.2675 9.86625 12.9094 10.1831 13.0688 10.5487ZM17.0307 8.985C17.2313 9.33187 17.7038 9.21375 18.2363 8.81625C18.7594 8.42625 18.9957 8.055 18.7594 7.71937C18.5213 7.38375 18.0994 7.68375 17.6157 8.03062C17.145 8.36437 16.8357 8.65125 17.0307 8.985ZM19.41 7.725C19.68 7.98 20.0982 7.74562 20.5125 7.30687C20.9475 6.8475 21.0544 6.48187 20.8463 6.25687C20.64 6.03187 20.265 6.18187 19.7775 6.69375C19.3257 7.16812 19.1775 7.50562 19.41 7.725ZM19.4982 4.69125C19.1175 5.18062 18.7032 5.565 19.0613 5.88C19.3294 6.11625 19.8582 5.82 20.2238 5.33437C20.5519 4.8975 20.6475 4.25812 20.34 4.12312C20.0325 3.99 19.8507 4.23937 19.4982 4.69125ZM21.3638 4.61812C21.2175 5.13562 20.9119 5.4525 21.2138 5.72625C21.57 6.0525 22.065 5.62687 22.2413 4.85625C22.4025 4.14562 22.2657 3.81 21.915 3.82312C21.5644 3.83437 21.4838 4.19812 21.3638 4.61812Z" fill="#D97A08"/>
</g>
</svg>
