<svg width="21" height="21" viewBox="0 0 21 21" fill="none" xmlns="http://www.w3.org/2000/svg">
<g id="Group">
<path id="Vector" d="M19.3594 11.0813C18.6844 11.7638 18.2644 12.6638 18.1819 13.6163C18.0169 15.5213 17.1844 17.3138 15.8344 18.6638C12.7144 21.7763 7.64437 21.7763 4.53187 18.6638L2.16937 16.3013L3.36937 15.1088C3.07687 12.7463 3.83437 10.2713 5.64187 8.46375C6.99187 7.11375 8.78437 6.28125 10.6894 6.11625C10.7483 6.11114 10.807 6.10464 10.8656 6.09675C10.7248 5.63677 10.712 5.14712 10.8286 4.6804C10.9451 4.21368 11.1866 3.78754 11.5271 3.44775C12.0033 2.97282 12.6416 2.69569 13.3137 2.67203C13.9858 2.64838 14.642 2.87997 15.1504 3.32025L17.1319 1.33875L19.4944 3.70125C21.4894 5.69625 21.4894 8.95125 19.4944 10.9463L19.3594 11.0813Z" fill="#FBB8AB"/>
<path id="Vector_2" fill-rule="evenodd" clip-rule="evenodd" d="M17.1544 8.87625C16.4794 9.55875 16.0594 10.4587 15.9769 11.4113C15.8127 13.3182 14.9846 15.1071 13.6369 16.4662C10.5169 19.5788 5.44688 19.5863 2.33438 16.4662C-0.778125 13.3463 -0.778125 8.27625 2.33438 5.16375C3.68438 3.81375 5.47688 2.98125 7.37438 2.80875C8.33116 2.72508 9.22826 2.30838 9.90938 1.63125L10.0444 1.49625C12.0394 -0.49875 15.2944 -0.49875 17.2894 1.49625C19.2844 3.49125 19.2844 6.74625 17.2894 8.74125L17.1544 8.87625ZM12.4969 4.41375C11.9944 4.91625 11.9944 5.72625 12.4969 6.22875C12.9994 6.73125 13.8169 6.73125 14.3194 6.23625C14.8219 5.73375 14.8219 4.91625 14.3194 4.41375C14.0775 4.17239 13.7498 4.03683 13.4081 4.03683C13.0664 4.03683 12.7387 4.17239 12.4969 4.41375Z" fill="#F4F4F4"/>
<path id="Vector_3" d="M4.25664 5.0955C3.76464 5.4855 3.83889 6.279 4.42614 6.55125L8.11614 8.29875C8.12014 8.29925 8.12414 8.3005 8.12814 8.3025C8.13214 8.3045 8.13564 8.30575 8.13864 8.30625C8.86614 8.64375 9.72114 8.51625 10.2911 7.94625L10.8461 7.39125C11.1986 7.03875 11.3336 6.52125 11.1911 6.04875C11.0686 5.6422 11.0583 5.2101 11.1613 4.79817C11.2643 4.38625 11.4767 4.00983 11.7761 3.70875C12.002 3.48161 12.2723 3.30344 12.57 3.18533C12.8678 3.06723 13.1867 3.01172 13.5069 3.02228C13.827 3.03283 14.1416 3.10922 14.4309 3.24668C14.7203 3.38414 14.9782 3.57973 15.1886 3.82125C15.9611 4.69125 15.9611 6.02625 15.1886 6.90375C14.5511 7.62375 13.5911 7.85625 12.7511 7.60125C12.5168 7.52879 12.267 7.52193 12.029 7.58144C11.791 7.64094 11.5738 7.76452 11.4011 7.93875L10.8536 8.48625C10.2836 9.05625 10.1561 9.91875 10.5011 10.6463C10.5011 10.6498 10.5026 10.6523 10.5056 10.6538C10.5076 10.6553 10.5089 10.6578 10.5094 10.6613L12.2644 14.3438C12.3258 14.4736 12.4187 14.5861 12.5347 14.6709C12.6507 14.7557 12.786 14.8101 12.9284 14.8292C13.0708 14.8483 13.2158 14.8314 13.35 14.7802C13.4842 14.7289 13.6035 14.6449 13.6969 14.5358C14.3303 13.5708 14.7142 12.4637 14.8144 11.3138C14.9194 10.0838 15.4594 8.92875 16.3294 8.05125L16.4644 7.91625C16.8388 7.54263 17.1343 7.09752 17.3332 6.60739C17.5322 6.11727 17.6305 5.59215 17.6224 5.06325C17.6147 4.50134 17.4869 3.94758 17.2474 3.43918C17.008 2.93078 16.6625 2.47953 16.2341 2.11575C14.6711 0.786752 12.3131 0.902252 10.8416 2.36325L10.7419 2.46375C9.86672 3.33718 8.71136 3.87369 7.47939 3.97875C6.32927 4.07857 5.22192 4.46229 4.25664 5.0955Z" fill="#F8312F"/>
<path id="Vector_4" d="M2.21065 7.1745C2.44915 6.822 2.9074 6.69825 3.29365 6.87375L7.80115 8.98875C8.67865 9.40125 9.39115 10.1137 9.81115 10.9837L11.9486 15.4687C12.1361 15.8662 11.9937 16.3387 11.6262 16.5712C10.9336 17.0127 10.1663 17.324 9.3619 17.49C8.25519 17.7189 7.10893 17.6691 6.02624 17.3451C4.94355 17.0211 3.9584 16.433 3.1594 15.6337C0.8629 13.338 0.54715 9.80925 2.21065 7.17375" fill="#F8312F"/>
</g>
</svg>
