<svg width="10" height="10" viewBox="0 0 10 10" fill="none" xmlns="http://www.w3.org/2000/svg">
  <defs>
    <clipPath id="half-star">
      <rect x="0" y="0" width="5" height="10" />
    </clipPath>
  </defs>
  <!-- 더 진한 회색으로 전체 별을 채우기 -->
  <path d="M5.14809 1.11375L6.02064 3.928H8.8424C8.99449 3.928 9.05853 4.13444 8.93445 4.22712L6.65303 5.96707L7.52557 8.78132C7.5736 8.93299 7.4055 9.06359 7.28142 8.96669L5 7.22674L2.71858 8.96669C2.5945 9.05937 2.42639 8.93299 2.47442 8.78132L3.34697 5.96707L1.06554 4.22712C0.941467 4.13444 1.00551 3.928 1.1576 3.928H3.97936L4.85191 1.11375C4.89994 0.962083 5.10006 0.962083 5.14809 1.11375Z" fill="#B0B0B0" stroke="#B0B0B0" stroke-linejoin="round"/>
  <!-- 반쪽 검정 별 -->
  <path d="M5.14809 1.11375L6.02064 3.928H8.8424C8.99449 3.928 9.05853 4.13444 8.93445 4.22712L6.65303 5.96707L7.52557 8.78132C7.5736 8.93299 7.4055 9.06359 7.28142 8.96669L5 7.22674L2.71858 8.96669C2.5945 9.05937 2.42639 8.93299 2.47442 8.78132L3.34697 5.96707L1.06554 4.22712C0.941467 4.13444 1.00551 3.928 1.1576 3.928H3.97936L4.85191 1.11375C4.89994 0.962083 5.10006 0.962083 5.14809 1.11375Z" fill="#111111" stroke="#111111" stroke-linejoin="round" clip-path="url(#half-star)"/>
</svg>
